<svg class="MuiSvgIcon-root MuiSvgIcon-fontSizeMedium css-1cw01wb" focusable="false" aria-hidden="true" viewBox="0 0 56 56" width="56" height="56" fill="none" xmlns="http://www.w3.org/2000/svg" data-testid="map-pin-hut"><path d="M18.648 9.91211C22.68 6.49611 25.76 6.10411 29.456 5.88011C32.76 5.54411 36.512 6.44011 39.312 8.62411C42.336 10.9761 43.68 14.6721 43.96 18.3681C44.24 22.1201 43.064 25.3681 40.544 27.8321C36.008 32.2561 29.512 35.2241 23.016 33.1521C21.224 32.5921 18.928 31.5281 17.808 30.1841C14.784 26.9361 13.72 24.8641 13.272 22.6241C12.488 19.3201 13.496 16.4081 13.832 15.5121C14.896 13.0481 16.856 11.5361 18.648 9.91211Z" fill="white"></path><path fill-rule="evenodd" clip-rule="evenodd" d="M48.3516 17.3585C48.3616 17.595 48.3718 17.8375 48.384 18.088C48.496 20.384 47.544 23.408 47.152 24.416C43.008 36.848 35.672 45.752 26.824 55.44C24.2255 52.0835 17.4925 40.8246 13.8093 34.6654C13.6825 34.4534 13.5593 34.2474 13.44 34.048C11.592 30.912 8.84799 25.704 8.34399 21.56C8.33116 21.4669 8.31759 21.3704 8.30357 21.2707C8.07288 19.6294 7.72011 17.1196 8.51199 15.008C9.35199 12.824 11.76 8.34397 14.896 6.15997C18.088 3.91997 22.4 1.95997 26.208 1.11997C28 0.72797 32.032 1.17597 35 1.67997C37.52 2.12797 40.096 3.52797 42.112 5.09597C44.24 6.77597 46.088 9.23997 47.208 11.704C48.2058 13.8991 48.2702 15.4276 48.3516 17.3585ZM29.456 5.88011C25.76 6.10411 22.68 6.49611 18.648 9.91211C18.415 10.1232 18.1792 10.3325 17.9429 10.5422C16.3615 11.9453 14.7577 13.3684 13.832 15.5121C13.496 16.4081 12.488 19.3201 13.272 22.6241C13.72 24.8641 14.784 26.9361 17.808 30.1841C18.928 31.5281 21.224 32.5921 23.016 33.1521C29.512 35.2241 36.008 32.2561 40.544 27.8321C43.064 25.3681 44.24 22.1201 43.96 18.3681C43.68 14.6721 42.336 10.9761 39.312 8.62411C36.512 6.44011 32.76 5.54411 29.456 5.88011Z" fill="currentColor"></path><path fill-rule="evenodd" clip-rule="evenodd" d="M32.424 13.552C31.024 13.888 29.624 14.336 28.28 14.672C26.992 15.008 25.76 15.4 24.416 15.736C24.304 15.736 24.248 15.792 24.136 15.792C24.024 15.848 23.912 16.016 23.856 16.128C23.576 16.52 23.408 16.968 23.184 17.36C22.96 17.864 22.68 18.368 22.4 18.816C22.288 18.984 22.232 19.04 22.008 19.152C21.448 19.432 20.832 19.712 20.272 20.048C18.648 20.944 17.192 21.896 15.736 23.016C15.624 23.128 15.456 23.24 15.344 23.352C15.12 23.52 14.896 23.688 14.84 23.968V24.08C14.896 24.36 15.12 24.528 15.4 24.528H15.512C19.656 23.632 23.744 22.68 28.056 21.896C31.248 21.28 34.664 20.944 38.136 20.608C39.144 20.496 40.208 20.44 41.216 20.384C41.384 20.384 41.496 20.384 41.664 20.384C42.056 20.328 42.224 20.048 42.336 19.656V19.544C42.28 19.096 41.832 18.928 41.496 18.76C41.16 18.592 40.824 18.48 40.544 18.368C39.872 18.144 39.2 17.864 38.528 17.696C37.296 17.304 36.008 17.08 34.664 16.744C34.552 16.744 34.16 16.632 34.104 16.576C34.048 16.52 33.992 16.352 33.936 16.24C33.712 15.68 33.488 15.12 33.264 14.56C33.096 14.112 33.04 13.664 32.536 13.552H32.424Z" fill="currentColor"></path></svg>