<svg class="MuiSvgIcon-root MuiSvgIcon-fontSizeMedium css-14yq2cq" focusable="false" role="img" viewBox="0 0 40 40"
    fill="currentColor" xmlns="http://www.w3.org/2000/svg">
    <path fill-rule="evenodd" clip-rule="evenodd"
        d="M29.048 2.39814C38.5125 5.38539 39.8399 16.4218 39.8399 16.4218C40.1013 17.8529 40.0732 22.4249 39.5253 24.6894C39.1514 26.2473 38.8066 30.3789 32.064 35.6704C30.7568 36.6966 29.23 37.8654 27.6598 38.021C27.4649 38.0399 27.2684 38.0558 27.1731 37.9104C27.0773 37.7643 27.3693 37.3893 27.4494 37.3423C31.5378 34.9089 37.222 30.7864 37.4629 21.0493C37.4629 21.0493 38.0304 11.8942 32.3776 7.57383C30.5612 6.18633 27.9324 4.60772 25.8808 4.04227C25.5813 3.9593 22.7336 3.32416 22.6577 3.80465C22.549 4.48974 23.7095 4.53624 24.2864 4.55238C25.6517 4.59041 27.3204 5.43152 27.698 5.61767C32.5829 8.02276 33.8768 10.8406 34.3065 11.5274C36.2027 14.5456 36.1273 20.3329 36.1365 21.1671C36.2006 26.3946 33.4541 29.9717 32.2269 31.6706C30.1321 34.5664 25.4041 38.2637 17.7132 38.9134C15.9143 39.0654 11.9586 39.0158 8.04478 36.879C6.79544 36.1967 4.27958 34.1606 3.02571 31.8139C2.6606 31.1305 1.95536 29.3549 2.78531 29.1844C3.2893 29.0824 4.01679 30.6172 5.37694 32.0886C6.61187 33.4267 7.87481 34.6684 9.71038 35.5704C12.1539 36.772 15.1081 37.4514 16.3323 37.2564C16.602 37.2147 16.6335 36.8858 16.3668 36.8235C15.6096 36.6451 14.1214 36.5131 12.8946 36.0772C10.9696 35.3936 7.43142 33.163 5.38483 30.5429C4.62107 29.5663 3.47769 27.3005 3.25666 25.6246C2.87279 22.7132 3.00133 18.5764 3.1362 17.7718C3.92259 13.0939 6.43614 10.3862 8.34961 8.69749C10.2383 7.03898 13.7126 5.8603 14.6074 5.43303C14.7626 5.35885 14.6749 5.17389 14.5757 5.15771C14.4107 5.13084 14.2091 5.16353 14.0342 5.20497C13.9104 5.23898 13.7688 5.26708 13.6238 5.29471C13.2306 5.37484 2.07185 7.89906 1.95154 21.4757C1.94157 22.6962 0.884685 22.0005 0.754447 21.2514C0.395476 19.1893 0.448054 17.2915 0.915769 15.3179C1.77925 11.6813 4.03615 8.79125 6.27326 6.87932C9.54708 4.08073 14.1056 2.46366 17.9037 1.79934C21.1349 1.23238 23.7656 0.729606 29.048 2.39814ZM1.64792 27.8387C2.23879 27.9465 2.38631 27.4627 2.34063 27.2434C2.24531 26.7938 2.21786 26.3392 2.18489 25.7221C2.15305 25.1521 2.09315 24.4751 1.7227 24.0098C1.53469 23.7722 1.27015 23.6382 0.960494 23.6317C-0.420402 23.6015 0.0323387 25.8289 0.239152 26.5718C0.331646 26.8966 0.472844 27.217 0.738139 27.4387C0.987751 27.6504 1.31809 27.7803 1.64792 27.8387Z"
        fill="currentColor"></path>
    <path fill-rule="evenodd" clip-rule="evenodd"
        d="M34.9771 35.0055H35.2394L35.4856 35.7033H35.4909L35.7351 35.0055H35.9997V35.9154H35.8274V35.1562H35.822L35.5569 35.9154H35.4186L35.1544 35.1562H35.1488V35.9154H34.9771V35.0055ZM34.1257 35.0055H34.8434V35.1517H34.5708V35.9154H34.3985V35.1517H34.1257V35.0055Z"
        fill="currentColor"></path>
    <path fill-rule="evenodd" clip-rule="evenodd"
        d="M29.3042 13.0045C29.1198 12.9233 28.9531 12.8503 28.8188 12.7886C28.33 12.5638 27.1269 12.1834 26.1604 11.8779C25.6238 11.7083 25.0695 11.5333 24.9656 11.4854C24.8601 11.3222 24.6272 10.2982 24.5143 9.80057C24.4561 9.54389 24.4097 9.34123 24.3843 9.25324C24.2964 8.9397 24.1871 8.76178 23.8871 8.77734C23.8853 8.77753 23.864 8.77909 23.8625 8.77909C23.7571 8.78832 22.3237 9.07802 19.9757 9.55392C18.3976 9.87376 16.7661 10.2044 16.6629 10.2174C16.5315 10.2288 16.4548 10.2959 15.4301 11.8513C15.1226 12.3181 14.7398 12.8992 14.6785 12.96C14.6413 12.9815 14.4243 13.071 14.1946 13.1657C13.5423 13.4343 12.328 13.9348 11.2886 14.4771C10.14 15.0779 7.92876 16.3675 7.763 16.6724C7.7014 16.7856 7.6997 16.9056 7.75766 17.0019C7.83594 17.1312 8.01048 17.2014 8.22462 17.19C8.27025 17.1875 8.3182 17.1817 8.36653 17.1715C8.58718 17.1262 15.5796 16.0941 19.5915 15.64C20.5934 15.5272 21.8585 15.4298 23.352 15.3507C27.0259 15.1563 30.7263 15.1395 30.941 15.1735C31.1578 15.2097 31.3775 15.133 31.5282 14.9703C31.6507 14.8373 31.7161 14.6638 31.7109 14.4813C31.699 14.1207 30.9256 13.7179 29.3042 13.0045Z"
        fill="#E91C24"></path>
    <path fill-rule="evenodd" clip-rule="evenodd"
        d="M16.5588 20.1322C16.5313 19.777 16.475 19.6027 16.3629 19.5305C16.3059 19.4952 16.2299 19.4808 16.1636 19.4933C16.1588 19.4933 16.1534 19.4948 16.1493 19.4957C15.9788 19.5357 15.9134 19.7017 15.87 19.8127C15.8585 19.8427 15.8434 19.8715 15.7521 19.9945C14.4674 21.7231 14.3034 22.3135 14.233 22.8566C14.1766 23.2904 14.3251 23.7911 14.578 24.0191C14.6948 24.1245 14.8471 24.1702 14.996 24.143C15.1101 24.1229 15.2032 24.0606 15.2513 23.9746C15.2928 23.9 15.2978 23.8155 15.265 23.7271C15.3164 23.4539 15.5168 23.0572 15.7495 22.5986C16.1353 21.8371 16.6155 20.889 16.5588 20.1322Z"
        fill="#E91C24"></path>
    <path fill-rule="evenodd" clip-rule="evenodd"
        d="M16.4037 19.0163C16.4116 19.0149 16.42 19.0139 16.4279 19.0122C16.7661 18.9519 17.0479 18.5675 17.2001 18.3602C17.5063 17.9412 17.8729 17.3841 18.0448 17.111C18.0818 17.0522 18.1645 16.8982 18.1814 16.85C18.2161 16.7487 18.2107 16.6726 18.1674 16.6205C18.1129 16.5577 18.011 16.5437 17.8487 16.581C17.4518 16.6709 16.6401 17.0645 16.1522 17.7402C15.9323 18.0444 15.8228 18.3917 15.8664 18.6459C15.9103 18.9044 16.1267 19.0535 16.4037 19.0163Z"
        fill="#E91C24"></path>
    <path fill-rule="evenodd" clip-rule="evenodd"
        d="M23.7185 22.5084C23.6369 22.5167 23.5677 22.5494 23.5654 22.5509C23.2634 22.6852 22.7367 22.7692 22.4732 22.7983C22.0473 22.8437 21.6251 22.7876 21.137 22.7236C20.5235 22.6414 19.8288 22.5499 18.9525 22.6437C18.8025 22.6598 18.6499 22.6812 18.4982 22.7071C18.7668 22.4308 19.5174 21.656 19.9459 21.2013C20.2401 20.8901 20.7537 20.3098 20.8956 19.926C20.9498 19.7792 21.02 19.5066 20.8869 19.3337C20.7976 19.2194 20.6394 19.1727 20.4147 19.1965C20.38 19.2007 17.811 19.4643 17.811 19.4643C17.7356 19.4726 17.6205 19.4634 17.5643 19.4586C17.5489 19.4576 17.5378 19.4564 17.5321 19.4563C17.2583 19.4428 17.0666 19.5529 17.0194 19.745C16.9761 19.921 17.067 20.1201 17.2397 20.2294C17.4148 20.3391 17.6999 20.3882 18.1112 20.3775C18.2559 20.3744 18.4036 20.3642 18.5507 20.3484C18.8976 20.3114 19.1741 20.2488 19.3421 20.2044C18.9763 20.5533 17.9551 21.5252 17.3233 22.1256C17.2796 22.1668 17.2345 22.209 17.1877 22.2533C16.8495 22.5707 16.4662 22.9303 16.2885 23.3C16.1348 23.6222 16.1491 23.8973 16.328 24.0517C16.4366 24.1469 16.5465 24.1799 16.6958 24.1639C16.8057 24.1524 16.9321 24.1155 17.1075 24.0648C17.4415 23.968 17.9466 23.8222 18.7754 23.7328C19.4478 23.6607 20.2308 23.6387 21.1011 23.6671C21.415 23.6775 21.7216 23.6669 22.0105 23.6356C22.7251 23.5589 23.3278 23.357 23.7085 23.0654L23.7242 23.0541C23.8363 22.9689 24.0467 22.8109 23.9524 22.6197C23.9113 22.5351 23.8288 22.496 23.7185 22.5084Z"
        fill="#E91C24"></path>
    <path fill-rule="evenodd" clip-rule="evenodd"
        d="M14.3502 20.9296C14.3569 20.9154 14.9871 19.555 13.7994 18.59C13.2095 18.1099 12.384 17.9354 11.4742 18.0989C10.9902 18.1865 10.5098 18.3654 10.1889 18.5786C9.8355 18.8128 9.74074 19.0549 9.72288 19.2169C9.702 19.412 9.78372 19.5625 9.82685 19.604C9.87674 19.6547 9.96673 19.7075 10.2063 19.6649C10.3209 19.6441 10.464 19.6026 10.6322 19.5409C10.3159 19.9536 9.34993 21.3365 8.60038 23.7216C8.0552 25.4607 7.90379 26.4799 8.13692 26.8397C8.19176 26.924 8.26848 26.9719 8.36405 26.9823C8.393 26.9855 8.42196 26.9846 8.45115 26.9788C8.93134 26.8933 9.41323 25.643 10.0795 23.9136C10.1758 23.6644 10.2758 23.4068 10.379 23.142C11.4863 20.309 11.5523 19.6217 11.4859 19.4266C11.8203 19.4236 13.0241 19.4747 13.1684 20.3915C13.2883 21.1519 12.4753 21.8483 11.6743 22.2473C11.4639 22.3518 11.2551 22.4216 11.0877 22.4782C10.929 22.5318 10.8041 22.5739 10.7197 22.6281C10.6176 22.6928 10.6313 22.7678 10.6431 22.7964C10.6927 22.9322 10.9996 23.0268 11.4905 22.9451L11.5274 22.9387C11.8696 22.8769 13.6143 22.4907 14.3502 20.9296Z"
        fill="#E91C24"></path>
    <path fill-rule="evenodd" clip-rule="evenodd"
        d="M23.4223 25.719C23.4388 25.505 23.4059 25.3499 23.326 25.26C23.2801 25.2094 23.2206 25.1809 23.1522 25.1786C23.1247 25.1772 23.0981 25.1791 23.0716 25.1836C22.8628 25.2208 22.7259 25.4393 22.5361 25.7403C22.3524 26.0337 22.1003 26.4338 21.6721 26.8446C21.1898 27.3062 20.6614 27.6755 20.4798 27.7529C20.6188 27.3199 20.6655 26.7968 20.6369 26.5121C20.6092 26.229 20.5129 26.0243 20.3512 25.9019C20.1603 25.7586 19.9246 25.763 19.7605 25.7933C19.5455 25.8316 19.3554 25.9286 19.2853 26.0018C19.2404 26.0494 19.2216 26.0972 19.2309 26.1445C19.2435 26.2079 19.3034 26.2619 19.4147 26.3092C19.6161 26.3965 19.5841 26.4924 19.537 26.6371C19.5284 26.6646 19.5184 26.6938 19.5115 26.7207C19.4748 26.8463 19.4298 26.9747 19.3835 27.1094C19.2084 27.615 19.0281 28.1376 19.1948 28.5788C19.331 28.9402 19.6696 29.1004 20.1229 29.0186C20.2095 29.0032 20.3002 28.979 20.3925 28.9471C20.8968 28.7694 21.4469 28.2899 22.0295 27.5206C22.0596 28.2011 22.4813 28.5364 22.6687 28.6847C22.8032 28.7921 22.9567 28.8424 23.0792 28.8207C23.1554 28.8065 23.2145 28.765 23.2467 28.7033C23.2757 28.6445 23.2947 28.5389 23.2126 28.3742C23.0854 28.1177 23.24 27.0471 23.3417 26.3386C23.3801 26.0738 23.4127 25.8456 23.4223 25.719Z"
        fill="#E91C24"></path>
    <path fill-rule="evenodd" clip-rule="evenodd"
        d="M29.3082 23.8963C29.1987 23.7943 28.983 23.8396 28.1806 24.0154C27.9559 24.0651 27.6848 24.1243 27.3588 24.1925C27.2654 24.2122 27.106 24.2509 26.9042 24.3003C26.7935 24.3274 26.6696 24.3574 26.5364 24.3893L26.5756 24.3087C26.7145 24.0154 26.8591 23.7126 26.9094 23.5194C26.9649 23.309 26.9362 23.1244 26.8325 23.012C26.7569 22.9295 26.6469 22.8942 26.5319 22.9147C26.4246 22.9337 26.3231 22.9979 26.2373 23.099C26.1132 23.245 25.6745 23.7879 25.2018 24.6722C25.0325 24.7003 24.5597 24.7695 24.2282 24.7362C24.1585 24.7284 24.0534 24.7203 23.9544 24.7373L23.945 24.7401C23.7913 24.7693 23.6797 24.858 23.6135 25.0038C23.5722 25.0932 23.5696 25.196 23.6051 25.2908C23.6513 25.4121 23.7535 25.513 23.8928 25.5732C24.0991 25.6634 24.3901 25.7084 24.7208 25.7016C24.2184 26.946 24.0311 28.1154 24.1656 29.178C24.1898 29.377 24.242 29.5067 24.3187 29.5638C24.3544 29.5893 24.3952 29.5993 24.4371 29.592C24.5514 29.571 24.664 29.4208 24.731 29.1993C24.7866 29.0178 25.5361 26.7932 26.0804 25.4263C27.1987 25.0373 28.0875 24.6897 28.7968 24.3644L28.8374 24.3462C29.0396 24.256 29.2328 24.1635 29.2856 24.1119C29.3253 24.0728 29.3466 24.0277 29.3466 23.9852C29.3464 23.9516 29.333 23.9199 29.3082 23.8963Z"
        fill="#E91C24"></path>
    <path fill-rule="evenodd" clip-rule="evenodd"
        d="M19.1481 26.7844C19.1392 26.7569 19.1118 26.7079 19.0376 26.6987C18.9854 26.6803 18.9284 26.6875 18.8026 26.7321C18.7675 26.7452 18.7262 26.7604 18.6775 26.7786C18.5842 26.8131 18.4609 26.8603 18.2965 26.9158C18.4095 26.3918 18.5144 25.9657 18.6006 25.6207C18.7774 24.9062 18.8666 24.5477 18.7527 24.385C18.7129 24.3291 18.6516 24.298 18.5639 24.2895C18.5432 24.2878 18.5219 24.2882 18.5002 24.2928C18.0284 24.3769 17.3079 25.8858 16.8363 27.3398C16.8 27.3488 16.7646 27.3575 16.7273 27.3674C16.2184 27.4948 15.657 27.6192 15.0575 27.7378C15.1903 27.328 15.3296 26.9183 15.4925 26.4522L15.498 26.4366C15.6573 25.9827 15.9544 25.1385 15.9068 24.7581C15.8752 24.4995 15.7428 24.4657 15.6672 24.469C15.6543 24.469 15.6431 24.4703 15.6302 24.4732C15.1093 24.5665 14.1144 26.3738 13.4385 28.0368L13.3624 28.0503L13.192 28.081C12.8224 28.1473 12.473 28.2143 12.2612 28.2957C11.9287 28.4249 11.7405 28.6054 11.7311 28.8018C11.7223 28.9777 11.8629 29.1474 12.1171 29.2669C12.3328 29.3674 12.6069 29.4204 12.9329 29.4266C12.6762 30.2339 12.3216 31.6009 12.6453 32.1375C12.7216 32.2624 12.8302 32.3371 12.9685 32.3598C13.0573 32.3742 13.1431 32.3742 13.2235 32.3594C13.7963 32.2567 14.0507 31.4353 14.1913 30.8259C14.3157 30.2926 14.4611 29.7342 14.6226 29.1654C15.2099 29.0033 15.8621 28.7693 16.5144 28.4865C16.3319 29.2767 16.1411 30.518 16.6947 30.6425C16.7966 30.6751 16.8991 30.6817 16.9984 30.664C17.2265 30.6227 17.4341 30.4478 17.582 30.171C17.782 29.7973 17.8784 29.2544 17.9529 28.7738C18.0133 28.3893 18.0773 28.0195 18.1428 27.6731C18.5522 27.4351 18.8645 27.2188 19.0243 27.0608C19.1268 26.9594 19.1718 26.8593 19.1481 26.7844Z"
        fill="#E91C24"></path>
    <path fill-rule="evenodd" clip-rule="evenodd"
        d="M29.3885 19.9148C29.4551 19.9934 29.5487 20.0378 29.6656 20.0476C30.22 20.096 30.3479 20.2587 30.3575 20.3859C30.3621 20.4418 30.3414 20.4975 30.2961 20.551C30.1098 20.7715 29.5478 20.9066 29.2876 20.9294L29.2757 20.9311C28.7794 20.972 28.3617 20.8407 28.2288 20.6078C28.1786 20.64 28.1129 20.6876 28.0342 20.7446L28.0205 20.7546L28.0177 20.7566C27.6283 21.0412 26.9788 21.5159 26.2607 21.5753C26.0976 21.5895 25.9378 21.5799 25.7863 21.5488C25.7128 21.5342 25.6437 21.5113 25.5823 21.4812C25.533 21.6671 25.2905 21.8658 24.9103 22.026C24.606 22.153 24.2695 22.2289 23.854 22.2642C23.5304 22.2913 23.1944 22.2897 22.8681 22.2882C22.8589 22.2881 22.8498 22.2881 22.8406 22.2881C22.5043 22.2858 22.1573 22.2835 21.8218 22.3121C21.5671 22.3334 21.3431 22.3695 21.1375 22.4235C20.9836 22.4629 20.8418 22.4139 20.7795 22.3014C20.6561 22.0739 20.8564 21.6197 21.2762 21.1715C21.6521 20.7689 22.1754 20.347 22.6821 19.9385L22.6926 19.93C23.0018 19.6812 23.2963 19.444 23.5332 19.2299C23.3003 19.267 22.8338 19.3383 22.4207 19.3733C22.2003 19.3919 22.0203 19.3979 21.887 19.3907C21.6274 19.3773 21.2899 19.2636 21.1898 18.9896C21.1282 18.8188 21.1407 18.6386 21.2234 18.5101C21.2908 18.4065 21.397 18.3437 21.5235 18.3325L21.5418 18.332C21.5941 18.3299 21.6365 18.3394 21.6844 18.3502C21.6879 18.3509 21.6914 18.3517 21.6949 18.3525C21.7784 18.3723 21.8279 18.3812 21.9511 18.3662C22.2192 18.3343 22.8729 18.2319 23.8403 18.0701C23.947 18.0521 24.0489 18.0388 24.144 18.0312C24.7522 17.9802 25.0106 18.1429 25.1213 18.2878C25.2648 18.4778 25.2476 18.7373 25.072 19.0194C25.0183 19.107 24.7374 19.4232 24.5673 19.6029C24.183 20.0072 23.2136 20.979 22.9011 21.2676C23.0575 21.2788 23.2288 21.3007 23.4076 21.3235C23.4189 21.3249 23.4303 21.3264 23.4417 21.3278C23.8217 21.3771 24.2507 21.4324 24.6342 21.4001C24.8797 21.3799 25.0816 21.3261 25.2516 21.2364C25.2615 21.2318 25.2773 21.2257 25.2963 21.2206C25.2801 21.1943 25.2665 21.168 25.2548 21.1398C25.0939 20.7813 25.1541 20.3463 25.4285 19.8837C25.9919 18.9398 27.2957 18.1289 28.3982 18.0359C28.6217 18.0175 28.8364 18.0271 29.0351 18.0655C29.0835 18.0346 29.2253 17.951 29.3433 17.9612C29.4141 17.9668 29.5148 18.0098 29.5836 18.1099C29.641 18.1937 29.6949 18.347 29.6228 18.6019C29.561 18.8194 29.5006 18.9971 29.4468 19.1541C29.3123 19.5469 29.2458 19.7443 29.3885 19.9148ZM28.0231 19.747C28.0432 19.5754 28.0816 19.4593 28.3139 18.9637C28.0064 19.035 26.9675 19.3389 26.6282 20.244C26.6255 20.2553 26.6201 20.282 26.6301 20.2943C26.6351 20.3004 26.6549 20.3173 26.7304 20.3106C27.0468 20.2841 27.8068 19.8903 28.0231 19.747Z"
        fill="#E91C24"></path>
    <title>Logo</title>
</svg>